# xmcd CD database file
#
# Track frame offsets:
#	150
#	17862
#	37914
#	57177
#	82150
#	105755
#	126295
#	140642
#	162426
#	180867
#	202973
#	226243
#
# Disc length: 3406 seconds
#
# Revision: 2
# Processed by: cddbd v1.5.2PL0 Copyright (c) Steve Scherf et al.
# Submitted via: CDex 1.51
#
DISCID=930d4c0c
DTITLE=Sliding Hammers - A Beautiful Friendship
DYEAR=2006
DGENRE=Jazz
TTITLE0=Falcon
TTITLE1=Penthouse
TTITLE2=High altitude delivery
TTITLE3=The good life
TTITLE4=When lights are low
TTITLE5=The hammer theme
TTITLE6=Winter
TTITLE7=Being alive
TTITLE8=My wedding shoes
TTITLE9=You'd be so nice to come home to
TTITLE10=All these days
TTITLE11=A beautiful friendship
EXTD=YEAR: 2006
EXTT0=
EXTT1=
EXTT2=
EXTT3=
EXTT4=
EXTT5=
EXTT6=
EXTT7=
EXTT8=
EXTT9=
EXTT10=
EXTT11=
PLAYORDER=
